<?xml version="1.0" standalone="no"?>
<!DOCTYPE svg PUBLIC "-//W3C//DTD SVG 20010904//EN"
 "http://www.w3.org/TR/2001/REC-SVG-20010904/DTD/svg10.dtd">
<svg version="1.0" xmlns="http://www.w3.org/2000/svg"
 width="192.000000pt" height="192.000000pt" viewBox="0 0 192.000000 192.000000"
 preserveAspectRatio="xMidYMid meet">
<metadata>
Created by potrace 1.11, written by Peter Selinger 2001-2013
</metadata>
<g transform="translate(0.000000,192.000000) scale(0.100000,-0.100000)"
fill="#000000" stroke="none">
<path d="M0 960 l0 -960 960 0 960 0 0 960 0 960 -960 0 -960 0 0 -960z m886
283 c-3 -71 -9 -181 -12 -245 l-7 -118 -57 0 -57 0 -7 153 c-3 83 -9 194 -12
245 l-7 92 83 0 83 0 -7 -127z m476 -63 c20 -6 50 -26 66 -44 l30 -34 28 29
c64 67 173 75 238 18 60 -52 69 -90 74 -311 l4 -198 -80 0 -79 0 -5 175 c-4
157 -6 178 -25 203 -39 52 -103 34 -122 -35 -6 -21 -11 -107 -11 -190 l0 -153
-80 0 -80 0 0 179 c0 165 -2 180 -21 205 -37 47 -100 25 -119 -42 -5 -20 -10
-106 -10 -189 l0 -153 -80 0 -80 0 0 270 0 270 70 0 70 0 0 -30 c0 -35 6 -37
36 -9 24 22 86 48 119 49 11 0 37 -5 57 -10z m-898 -11 c55 -15 131 -89 150
-146 21 -60 20 -167 0 -228 -30 -88 -116 -152 -219 -162 -113 -12 -209 35
-261 129 -26 48 -29 62 -29 143 0 81 3 95 30 144 49 89 121 130 230 131 33 0
77 -5 99 -11z m415 -375 c24 -30 28 -99 8 -125 -56 -73 -167 -33 -167 61 0 58
33 90 94 90 36 0 48 -5 65 -26z"/>
<path d="M310 1042 c-69 -69 -61 -244 12 -283 79 -43 148 26 148 148 -1 136
-87 208 -160 135z"/>
</g>
</svg>
